<svg id="Calque_1" data-name="Calque 1" xmlns="http://www.w3.org/2000/svg" viewBox="0 0 55.14 48.16"><defs><style>.cls-1{fill:none;stroke:#000;stroke-miterlimit:10;}</style></defs><path class="cls-1" d="M112.11,74.44c-1.63-1.3-3.24-2.55-4.81-3.84A127,127,0,0,1,94.6,58.83,53.3,53.3,0,0,1,87.75,50a16.82,16.82,0,0,1-2.51-6.22,13.64,13.64,0,0,1,3.27-11,14.41,14.41,0,0,1,9.67-5.23,14.57,14.57,0,0,1,10.89,2.89,41,41,0,0,1,3.15,2.9c.39-.44.83-1,1.33-1.47a14.67,14.67,0,0,1,10.68-4.43,14.17,14.17,0,0,1,11,4.76c4.38,4.93,5.19,10.32,2.26,16.07a47.18,47.18,0,0,1-7.63,10.39A136.54,136.54,0,0,1,112.45,74.2Z" transform="translate(-84.59 -26.9)"/></svg>