<?xml version="1.0" encoding="UTF-8"?>
<svg version="1.1" xmlns="http://www.w3.org/2000/svg" xmlns:xlink="http://www.w3.org/1999/xlink" x="0px" y="0px"
	 width="12" height="12" viewBox="0 0 296 295" xml:space="preserve">
<g>
        <path d="M148.3 26.6c39.4 0 44.1.2 59.6.9 14.4.7 22.2 3.1 27.4 5.1 6.9 2.7 11.8 5.9 17 11 5.2 5.2 8.4 10.1 11 17 2 5.2 4.4 13 5.1 27.4.7 15.6.9 20.2.9 59.6 0 39.4-.1 44.1-.9 59.6-.7 14.4-3.1 22.2-5.1 27.4-2.7 6.9-5.9 11.8-11 17-5.2 5.2-10.1 8.4-17 11-5.2 2-13 4.4-27.4 5.1-15.6.7-20.2.9-59.6.9-39.4 0-44.1-.1-59.6-.9-14.4-.7-22.2-3.1-27.4-5.1-6.9-2.7-11.8-5.9-17-11-5.2-5.2-8.4-10.1-11-17-2-5.2-4.4-13-5.1-27.4-.7-15.6-.9-20.2-.9-59.6 0-39.4.1-44.1.9-59.6.7-14.4 3.1-22.2 5.1-27.4 2.7-6.9 5.9-11.8 11-17 5.2-5.2 10.1-8.4 17-11 5.2-2 13-4.4 27.4-5.1 15.6-.8 20.2-.9 59.6-.9m0-26.6c-40.1 0-45.1.2-60.8.9-15.7.7-26.4 3.2-35.8 6.9-9.7 3.8-17.9 8.8-26.1 17-8.2 8.2-13.2 16.4-17 26.1C5 60.3 2.5 71 1.7 86.7 1 102.4.8 107.5.8 147.5s.2 45.1.9 60.8c.7 15.7 3.2 26.4 6.9 35.8 3.8 9.7 8.8 17.9 17 26.1 8.2 8.2 16.4 13.2 26.1 17 9.4 3.6 20.1 6.1 35.8 6.9 15.7.7 20.8.9 60.8.9 40.1 0 45.1-.2 60.8-.9 15.7-.7 26.4-3.2 35.8-6.9 9.7-3.8 17.9-8.8 26.1-17 8.2-8.2 13.2-16.4 17-26.1 3.6-9.4 6.1-20.1 6.9-35.8.7-15.7.9-20.8.9-60.8s-.2-45.1-.9-60.8c-.7-15.7-3.2-26.4-6.9-35.8-3.8-9.7-8.8-17.9-17-26.1-8.2-8.2-16.4-13.2-26.1-17-9.4-3.6-20.1-6.1-35.8-6.9-15.7-.7-20.7-.9-60.8-.9"/>
        <path d="M148.3 71.8c-41.8 0-75.7 33.9-75.7 75.7 0 41.8 33.9 75.7 75.7 75.7 41.8 0 75.7-33.9 75.7-75.7.1-41.8-33.9-75.7-75.7-75.7m0 124.9c-27.2 0-49.2-22-49.2-49.2 0-27.2 22-49.2 49.2-49.2 27.2 0 49.2 22 49.2 49.2 0 27.2-22 49.2-49.2 49.2M244.8 68.8c0 9.8-7.9 17.7-17.7 17.7-9.8 0-17.7-7.9-17.7-17.7 0-9.8 7.9-17.7 17.7-17.7 9.7 0 17.7 7.9 17.7 17.7"/>
    </g>
</svg>
