<?xml version="1.0" encoding="UTF-8"?>
<svg version="1.1" xmlns="http://www.w3.org/2000/svg" xmlns:xlink="http://www.w3.org/1999/xlink" x="0px" y="0px"
	 width="14" height="14" viewBox="0 0 380 380" xml:space="preserve">
<g>
        <path fill="currentColor" d="M6.5 126.8h78.7V380H6.5V126.8zM45.9.9c25.2 0 45.6 20.4 45.6 45.6 0 25.2-20.4 45.6-45.6 45.6C20.7 92.1.3 71.7.3 46.5.3 21.4 20.7.9 45.9.9zM134.6 126.8h75.5v34.6h1.1c10.5-19.9 36.2-40.9 74.5-40.9 79.6 0 94.3 52.4 94.3 120.6V380h-78.6V256.9c0-29.3-.6-67.1-40.9-67.1-41 0-47.2 32-47.2 65V380h-78.7V126.8z"/>
    </g>
</svg>
