<?xml version="1.0" encoding="UTF-8"?>
<svg version="1.1" xmlns="http://www.w3.org/2000/svg" xmlns:xlink="http://www.w3.org/1999/xlink" x="0px" y="0px"
	 width="13" height="14" viewBox="0 0 664 661" xml:space="preserve">
<g>
        <path d="M643.9 641.7l19.3-19.3-250.5-249.7c71.5-90.3 65.5-221.9-18.1-305.3-90.1-89.8-236.1-89.8-326.1 0-90.1 89.8-90.1 235.6 0 325.5 83.6 83.4 215.3 89.4 305.8 18.1l250.1 249.7 19.5-19zM360.7 101.2C432 172.5 432 288 360.7 359c-71.2 71.2-187 71.2-258.2 0-71.2-71.2-71.2-186.7 0-257.8 71.3-71.2 187-71.2 258.2 0z" />
    </g>
</svg>
