<?xml version="1.0" encoding="UTF-8"?>
<svg version="1.1" xmlns="http://www.w3.org/2000/svg" xmlns:xlink="http://www.w3.org/1999/xlink" x="0px" y="0px"
	 width="23" height="21" viewBox="0 0 723 673" xml:space="preserve">
<g>
        <path d="M632.6 500.9c-33.2 0-62.3 17.2-77.5 43L194.5 370.5c6.5-12.8 10.1-27.1 10.1-42.3 0-17-4.5-32.9-12.5-46.8l219.1-126.6c17.2 17.2 41.7 28 68.5 28 52.6 0 95.4-41 95.4-91.4C575.1 41 532.3 0 479.7 0c-52.6 0-95.2 41-95.2 91.4 0 14.3 3.4 27.8 9.6 39.9L173.9 258.5c-18.4-17.5-43.7-28.2-71.7-28.2C45.8 230.3.1 274.2.1 328.4c0 54 45.9 97.9 102.1 97.9 29.1 0 55.3-11.6 73.9-30.5l368.3 177c-.7 4.5-1.1 9-1.1 13.7 0 47.3 40.1 85.6 89.4 85.6 49.3 0 89.4-38.3 89.4-85.6-.3-47.3-40.4-85.6-89.5-85.6zM480.8 23.3c39 0 70.6 30.5 70.6 67.6 0 37.1-31.6 67.6-70.6 67.6-19.5 0-37-7.6-50-19.7-5.4-5.2-10.1-11.2-13.4-17.9-4.7-9-7.2-19-7.2-29.8 0-37.6 31.6-67.8 70.6-67.8zm-378.6 377c-41.4 0-75-32.3-75-71.9 0-39.6 33.6-71.9 75-71.9 21.5 0 41 8.7 54.7 22.8 3.1 3.1 6 6.7 8.5 10.3 7.6 11.2 11.9 24.6 11.9 38.8 0 12.3-3.4 24-9 34-3.1 5.6-6.9 10.8-11.6 15.2-13.7 14-33.2 22.7-54.5 22.7zm530.9 247.3c-35.5 0-64.2-27.7-64.2-61.6 0-2.2 0-4.1.2-6.3.9-8.5 3.7-16.5 7.8-23.7 10.9-18.9 32-31.6 56.2-31.6 35.5 0 64.2 27.7 64.2 61.6 0 34-28.7 61.6-64.2 61.6z" />
    </g>
</svg>
