<?xml version="1.0" encoding="UTF-8"?>
<svg version="1.1" xmlns="http://www.w3.org/2000/svg" xmlns:xlink="http://www.w3.org/1999/xlink" x="0px" y="0px"
	 width="18" height="14" viewBox="0 0 444.6 510.72" xml:space="preserve">
	 <g>
<path d="M171.2,510.72h-24.95c-4.91-.76-9.83-1.41-14.71-2.3C53.45,494.33-10.59,421.49,1.46,328.46c11.22-86.62,93.57-148.62,179.98-136.36,3.73,.53,4.97,1.65,4.91,5.5-.43,28.61-.63,57.22-.92,85.83-.01,1.13-.22,2.27-.31,3.1-7.58-.94-14.92-2.31-22.32-2.71-40.79-2.19-82.65,34.71-72.65,86.53,5.29,27.45,22.66,46.32,49.23,54.65,25.94,8.13,50.18,2.65,70.48-15.83,13.71-12.48,22.41-27.7,22.22-47.2-.17-17.96,.83-35.92,.87-53.89,.19-100.48,.24-200.96,.34-301.44,0-2.09,0-4.17,0-6.66h83.2c.49,4.52,.82,8.66,1.4,12.77,3.65,25.9,12.66,49.51,30.1,69.4,19.3,22.01,44.29,33.93,72.32,40.26,8.06,1.82,16.2,3.3,24.3,4.94v84.86c-45.16-1.19-86.61-14.17-124.5-40.58,0,3.47,0,5.46,0,7.45-.08,56.36,0,112.72-.37,169.08-.07,10.9-.65,22.06-3.02,32.65-14.54,64.99-53.92,106.96-118.18,124.97-8.88,2.49-18.22,3.32-27.34,4.92Z"/>
</g>
</svg>
