<?xml version="1.0" encoding="UTF-8"?>
<svg version="1.1" xmlns="http://www.w3.org/2000/svg" xmlns:xlink="http://www.w3.org/1999/xlink" x="0px" y="0px"
	 width="18" height="14" viewBox="0 0 512 416" xml:space="preserve">
<g>
        <path d="M413.7 213.6c-8.7-5.5-18.6-10-29.4-13.4-2.3-.8-3.9-1.3-4.9-1.7-1-.4-2.1-1.1-3.4-2.1-1.3-1-1.8-2.2-1.3-3.6.5-1.3.9-3.2 1.3-5.7 8.6-21.9 8.6-38.8 0-50.8-8.8-11.6-23.3-17.4-43.7-17.4-20.4 0-43.8 5.6-70.2 16.8l-1.7.6c-1.1.4-2.4.7-3.8 1-1.4.3-2.8.3-4.1.1-1.3-.2-2.3-.9-2.9-2-.6-1.1-.5-3 .3-5.7 8.6-27.6 6.7-47.5-5.7-59.7-14.1-14.1-37.5-14.8-70.4-2-32.8 12.8-65.3 35.2-97.5 67.4-24.4 24.4-43.2 48.9-56.4 73.7C6.6 233.7 0 257 0 278.9c0 20.6 6.2 39.5 18.6 57 12.4 17.4 28.7 31.8 49 43.1s43.2 20.2 68.7 26.6c25.5 6.4 51.7 9.6 78.5 9.6 26.8 0 52.6-2.9 77.2-8.8s46.2-13.8 64.5-23.7c18.4-9.9 34.4-21.1 48.1-33.5 13.7-12.5 24.1-25.5 31.1-39.1 7-13.6 10.6-26.9 10.6-39.8 0-12.2-3.2-23.3-9.7-33.3-6.5-10.2-14.1-17.9-22.9-23.4zm-93.2 130.9c-27.9 22.6-63 36-105.5 40.4-27.8 2.7-53.9.7-78.4-6-24.5-6.7-44.3-17-59.5-31.1-15.2-14.1-23.7-30.3-25.4-48.5-2.7-27.8 9.9-53 37.8-75.5 27.9-22.6 63.1-36 105.5-40.4 27.8-2.7 53.9-.7 78.4 6 24.5 6.7 44.3 17 59.5 31.1 15.2 14.1 23.7 30.3 25.4 48.5 2.7 27.7-9.9 52.9-37.8 75.5z"/>
        <path d="M223.3 226.1c-20.2-5.1-40.2-3.3-60.1 5.4-19.9 8.8-34.3 22-43.3 39.7-8.9 18.1-9.6 35.9-1.9 53.5 7.7 17.6 21.7 29.6 42.1 36.1 21.1 6.8 42.4 5.7 64-3.4 21.5-9.1 36.5-23.4 45.1-42.8 8.6-19 8.3-37.2-.7-54.4-9-17.2-24.1-28.6-45.2-34.1zm-30.6 92.5c-4.2 6.5-10.1 11-17.8 13.6-7.7 2.6-14.8 2.3-21.3-.7s-10.6-7.9-12.3-14.4c-1.7-6.6-.5-13.1 3.7-19.6 4-6.3 9.7-10.7 17.1-13.1 7.4-2.5 14.4-2.4 20.8.3 6.7 2.9 10.9 7.6 12.9 14.3 2 6.6.9 13.2-3.1 19.6zm26.9-34.5c-1.3 2.5-3.4 4.2-6.3 5.3-2.9 1-5.6 1.1-8.3.1-5.7-2.7-6.9-6.9-3.7-12.8 1.3-2.5 3.4-4.2 6.1-5.3 2.8-1 5.5-1.1 8.1-.1 2.5.9 4.1 2.7 5 5.3.9 2.5.6 5-.9 7.5zM408 158.9c2.1 4.1 5.3 6.9 9.7 8.4 4.4 1.3 8.6 1 12.7-1.1s6.9-5.3 8.4-9.7c3.6-10.7 4.2-21.8 1.8-33.5-2.4-11.7-7.6-22-15.5-31-8-8.9-17.6-15.2-28.8-18.7s-22.6-4-34-1.6c-4.6 1-8.1 3.4-10.6 7.3s-3.2 8.1-2.3 12.7c.8 4.6 3.1 8.1 7.1 10.6 4 2.5 8.3 3.2 12.9 2.3 12-2.5 22.2.9 30.5 10 8.4 9.1 10.7 19.7 6.9 31.7-1.3 4.3-.9 8.5 1.2 12.6z"/>
        <path d="M508.9 108.9c-4.9-24.1-15.6-45.3-32.1-63.5-16.6-18.5-36.4-31.3-59.4-38.4-23-7.1-46.2-8.2-69.7-3.3-5.3 1.1-9.5 3.9-12.4 8.4-3 4.5-3.9 9.4-2.7 14.7 1.1 5.3 4 9.5 8.6 12.4 4.6 2.9 9.5 3.9 14.8 2.7 16.6-3.4 33-2.6 49.4 2.4s30.5 14.1 42.3 27.3c11.8 12.9 19.4 28 22.8 45.1 3.4 17.1 2.5 33.5-2.9 49.1-1.5 5.1-1 10.1 1.4 14.8 2.5 4.8 6.3 8 11.4 9.7 5.1 1.7 10.1 1.3 14.8-1.1 4.8-2.5 8-6.3 9.7-11.4 7.6-21.8 8.9-44.8 4-68.9z"/>
    </g>
</svg>
