<?xml version="1.0" encoding="UTF-8"?>
<svg version="1.1" xmlns="http://www.w3.org/2000/svg" xmlns:xlink="http://www.w3.org/1999/xlink" x="0px" y="0px"
	 width="51" height="11" viewBox="0 0 440 94" xml:space="preserve">
<g>
        <path d="M439.2 30.4v5.7h-.4v-5.7h.4zM438.8 36.1h.4c-9.1.7-21.3.7-30.4 0h30zM438.8 30.4v5.7h-29.6v-5.7c3.9-.3 9 .6 12.2-.4v-8.3c-1.1-.5-6.1-1.2-6.5.4-.2 2.2-1.2 3.4-1.3 5.7-2.4.3-3.4-1-5.6-.9 1.3-5.6 2.8-11.1 3-17.8h6.1c0 1.9-.7 3-.4 5.2-1.8 2 2.9 1.2 4.3 1.3 1-2.2.1-6.2.4-9.1h6.5c.3 2.9-.6 7 .4 9.1h8.7v5.7c-2.9.3-7-.6-9.1.4.3 2.8-.6 6.7.4 8.7h10.5zM437.5 54.8c.7 1.2.7 5.3 0 6.5v-6.5zM437.1 40c1.7 2.6.9 10.1.4 13.5-.3-4.4.5-9.9-.4-13.5z"/>
        <path d="M437.5 54.8v6.5c-.4 2.8-2 4.3-4.8 4.8h-17c-2.9-.3-4.5-1.9-4.8-4.8V40H437c1 3.7.2 9.1.4 13.5.1.4.1.8.1 1.3zm-7-6.6c2.8-4.6-10.4-2.3-13-2.2v9.6c.1 1.3-.2 2.8.4 3.5.1.2.2.3.4.4v.4h.8c2.4 1 7.3 1 9.7 0h.8c0-.1.1-.3.1-.5.2-.1.3-.3.4-.4v-.4c1-2.5.2-7 .4-10.4z"/>
        <path d="M417.5 46.1c2.7-.1 15.9-2.4 13 2.2.8-4.5-9.6-1.1-12.6-2.2h-.4z"/>
        <path d="M430.5 48.2c-.3 3.3.6 7.8-.4 10.4.3-3.3-.6-7.7.4-10.4zM429.8 59.5c0-.2.1-.4.4-.4-.2.1-.3.3-.4.4zM429.8 59.5c0 .2 0 .3-.1.5h-.8c.3-.2.6-.3.9-.5zM419.2 60h9.7c-2.4.9-7.3.9-9.7 0zM419.2 60h-.8v-.4c.2.1.5.3.8.4zM417.9 59.1c.2.1.4.2.4.4-.1-.1-.3-.2-.4-.4zM417.5 46.1h.4c-.3 3.1.6 7.2-.4 9.6v-9.6zM411 40v21.3c-.7-6.1-.7-15.2 0-21.3zM409.2 30.4v5.7h-.4v-5.7h.4zM407.1 20.9c-.6 13.5 1.1 29.3-.9 41.3 1-12.9.2-27.7.4-41.3-2.8-.3-6.7.6-8.7-.4 3 .2 6.9-.6 9.2.4z"/>
        <path d="M376.2 7.8h30.4c-.3 1.9.6 4.9-.4 6.1-2.4.5-9.4-1.3-8.3 1.3v5.2c2 1 5.9.1 8.7.4-.3 13.6.6 28.4-.4 41.3-.5 2.2-2 3.5-4.3 3.9h-20c-1.4-.5-3.3-.5-4.4-1.3-.7-.8-.5-2.4-1.3-3V30.4 30c.2-2.9-.5-6.9.4-9.1h8.7c1-1.5.2-4.8.4-7h-9.6c.1-2 .1-4.1.1-6.1zM400.5 43h-3c-5.7-.9-5.2-10-4.4-16.1h-2.2c-1 .6-.2 3-.4 4.4-.6 5-1.9 9.4-3.9 13-1-.7-1.9-1.6-3.5-1.7-1.5-1.4-.7 3.1-.9 4.4 5.1 1 12 .1 17.8.4 1.1-.6.3-3 .5-4.4zm-.4-4.3c.7-2.9.7-8.8 0-11.7-.8.2-2.6-.6-2.2.9.3 3.2-.6 7.5.4 10 .2.7.8.9 1.8.8zm0 19.5c.7-.7.7-4.5 0-5.2-5.8.3-12.8-.6-17.8.4.1 2.2-.3 4.9.4 6.5h1.3c4.1.7 11.2.7 15.2 0 1.4.5.8-.9.9-1.7zM391 20.9h2.2c-.4-1.7-.6-3.5-.4-5.7 1.6-1.1-.9-1.6-2.2-1.3.2 2.2-.6 5.5.4 7zm-5.7 11.7c.9-2.1 1.3-7.4-3-5.7.6 4.2-1.1 10.7.9 13.5.3-.1.5-.4.4-.9 1.3-1.5 1.6-4.1 1.7-6.9z"/>
        <path d="M397.5 43h3c-.3 1.3.6 3.7-.4 4.3v-.4c.7-2.9-.7-3.6-2.6-3.9zM400.1 26.9c.7 2.9.7 8.8 0 11.7V26.9zM400.1 53c.7.7.7 4.5 0 5.2v-4.8-.4zM400.1 53v.4h-17.8c5.1-.9 12-.1 17.8-.4z"/>
        <path d="M400.1 46.9v.4c-5.8-.3-12.8.6-17.8-.4H400.1zM384 60h15.2c-4 .7-11.1.7-15.2 0zM397.9 27.8c1 2.5.1 6.8.4 10-.9-2.5-.1-6.8-.4-10zM382.3 26.9c4.4-1.7 4 3.6 3 5.7-.4-2.1 1.3-6.2-2.2-5.2-.5 2.7-1.2 11.6.4 12.2.1.5-.1.8-.4.9-1.9-2.9-.3-9.3-.8-13.6z"/>
        <path d="M383.2 42.6c-1 .6-.2 3-.4 4.4h-.4c.1-1.3-.7-5.9.8-4.4zM376.2 30.4v31.3c-.7-9.4-.7-21.9 0-31.3zM371.4 50c-.5 7.5-.6 15.3-7.8 16.1h-7.8c-1.5-.5-3.1-.9-4.8-1.3-.5-2.3-2.5-3-2.2-6.1V43.5c0-4.6 1-14.3-.9-14.8-1.1-.3-1.6-.1-1.3 1.7-1.2 11.4-5.1 22.2-11.7 30.4-2.8 3.5-5.5 6.9-8.7 2.6-.4-.6-.7-1.4-1.7-1.3-1 .6-.2 3-.4 4.3h-6.5V37.3h-.9c-1.1 1.8-2.5 3.3-3.5 5.2-1-.3-1.2-1.4-2.2-1.7-.7-1.4-2.3-2.1-3-3.5v-.4c7-8.2 11.6-18.9 15.2-30.4 2.3.8 4.3 1.8 6.5 2.6-1.3 5.1-3 9.8-4.8 14.3-1 1.5-.1 4.8-.4 7V54.7c-1 1.3-.1 4.5-.4 6.5 2.4-.3 3.3-2.2 4.3-3.9 6.2-7 10.8-15.6 11.3-28.3-.6-1-3-.2-4.4-.4H327c.1-1 .9-1.8 0-2.6 1-.3.2-2.4.4-3.5H340V6h6.5c1 4.5.2 10.9.4 16.1v.4c7.5.3 16.2-.6 23 .4v.9c-1 .7-.2 3.3-.4 4.8h-13.9c-.7 8.8-.7 20.7 0 29.6.2 3.1 4.5 2.1 7 1.7 1.9-2.7 1.4-7.9 2.2-11.7 2.6.3 4.2 1.4 6.6 1.8zM280.1 13.5c-.2-10.3 17.6-10.2 17 .4v31.3c-1.1 14.9-10.3 21.6-24.8 23h-7.4c-14.8-1.4-24.1-8.4-24.8-23.9V21.7v-3-4.3c-.1-.4.2-.4.4-.4-1.1-10.2 17-11.2 16.5-.9.3 10.6-.6 22.3.4 32.2-.4 12.8 22.2 13 22.2.4 1.1-9.9.2-21.7.5-32.2z"/>
        <path d="M239.2 54.8c3.5 6.5-.7 15.5-10 13.5-4.6-1-8.7-7.4-13-11.3-4.5-4.1-9.5-7.8-13-11.3-2.4-3.6-1.7 2.5-1.7 6.1v10.4c-.5 3.7-2.5 5.9-6.1 6.5h-5.2c-3.8-.4-5.3-3.1-6.1-6.5V13.9c.1-9.2 17.3-9.2 17.4 0v17c2.8-1.4 4.5-3.9 6.5-6.1 1.8-1.4 3.4-3 4.8-4.8 2.9-2.6 5.7-5.3 8.3-8.3 3.4-7.1 16.8-6.6 17.8 2.2 1.4 12.2-15.2 16.5-18.3 23.5 4.5 6.1 15 10.5 18.6 17.4zM164.9 13.5c-1.2-10.9 17.9-10 17 0v32.2c-1.5 14.5-10.7 21.1-25.7 22.2h-5.6c-15.3-1-24.6-7.9-25.2-23.5-.3-1.6.6-4.3-.4-5.2h-.4c-2 18-11.3 28.3-28.3 29.6C70.5 70.8 55 44 67.2 20.1 71.7 11.2 81 5 92.4 4.4c18.7-.9 29.9 12.5 32.6 31.3 1-6.2.1-14.4.4-21.3-1.3-11.4 18.3-11.5 17 0 .3 10.7-.6 22.6.4 32.6 1.3 10.6 21.8 10.2 21.7-1.3.9-9.9.1-21.7.4-32.2zm-57.9 26c.7-.9.7-4.8 0-5.7-.3-12.8-14.1-18.3-22.2-10.9-9.8 9.1-5.1 32 9.6 31.3 7.7-.2 11.7-6.5 12.6-14.7zM68.3 7.8c1.5 7.2-5.4 16.7-8.3 23C53.1 46.2 47.5 59 40.9 73.9c-3.2 7.3-5.8 15.3-11.7 19.1-24.7 1.5-6.3-25.6-2.6-35.2C21 47.2 13.6 34.9 7 23.5 4 18.3-3.5 8.3 4 2.6 6.8.5 12.9.4 15.7 2.6c8.7 6.7 13.6 24.8 20.9 33 2.7-4.5 5.1-10.8 7.8-17C46.9 13 49 5.1 52.7 2.5c5.7-3.8 14.5-.4 15.6 5.3z"/>
    </g>
</svg>
